<?xml version="1.0" standalone="no"?>
<!DOCTYPE svg PUBLIC "-//W3C//DTD SVG 20010904//EN"
 "http://www.w3.org/TR/2001/REC-SVG-20010904/DTD/svg10.dtd">
<svg version="1.0" xmlns="http://www.w3.org/2000/svg"
 width="1856.000000pt" height="1848.000000pt" viewBox="0 0 1856.000000 1848.000000"
 preserveAspectRatio="xMidYMid meet">
<metadata>
Created by potrace 1.16, written by Peter Selinger 2001-2019
</metadata>
<g transform="translate(0.000000,1848.000000) scale(0.100000,-0.100000)"
fill="#000000" stroke="none">
<path d="M5371 18469 c-21 -8 -23 -13 -16 -56 4 -25 15 -64 25 -87 10 -23 26
-60 36 -84 9 -23 24 -48 32 -55 8 -6 57 -15 109 -18 51 -3 97 -9 101 -13 4 -4
7 -456 7 -1004 0 -807 -3 -1017 -14 -1100 -16 -116 -19 -120 -107 -147 -74
-23 -146 -66 -171 -104 -32 -47 -31 -122 0 -182 13 -24 29 -60 36 -80 9 -29
18 -38 43 -43 42 -8 2224 -7 2272 2 l39 7 3 75 c2 41 8 212 15 379 12 314 8
542 -12 602 -15 43 -55 88 -96 105 -39 17 -65 17 -116 3 -46 -13 -69 -54 -86
-159 -19 -114 -27 -134 -113 -278 -93 -155 -179 -249 -278 -302 -171 -91 -146
-85 -340 -85 -96 0 -209 4 -251 8 l-76 8 -7 452 c-7 474 -3 569 22 589 24 21
175 14 257 -10 123 -37 172 -100 214 -273 29 -118 51 -181 69 -202 23 -26 115
-50 162 -42 36 6 39 9 45 48 4 22 8 307 8 632 l1 590 -24 49 c-62 128 -174
165 -229 76 -10 -17 -26 -76 -35 -133 -28 -171 -66 -227 -206 -305 -49 -28
-238 -102 -259 -102 -14 0 -21 140 -23 445 -2 336 3 363 77 439 56 58 116 77
265 83 145 6 227 -10 352 -70 205 -99 324 -263 389 -541 30 -126 46 -141 152
-141 120 0 108 -53 105 472 -3 419 -5 463 -22 511 l-19 52 -1156 -1 c-702 0
-1165 -4 -1180 -10z"/>
<path d="M8485 18441 c-182 -141 -308 -411 -308 -661 0 -102 16 -199 53 -331
34 -119 71 -189 154 -294 91 -116 176 -186 338 -279 133 -75 210 -113 595
-290 268 -123 383 -230 383 -358 0 -225 -152 -406 -360 -427 -220 -22 -414 51
-604 229 -89 83 -210 286 -285 481 -29 74 -62 149 -73 167 -27 44 -85 82 -126
82 -39 0 -88 -23 -101 -48 -12 -23 -12 -451 0 -732 10 -211 25 -367 50 -486
10 -50 11 -52 54 -63 104 -26 155 -5 205 86 36 62 65 100 92 114 18 10 101
-13 213 -61 280 -117 514 -169 695 -155 220 18 311 47 467 151 62 41 102 78
154 142 85 106 132 199 167 334 23 92 26 122 27 283 0 164 -2 190 -28 298 -47
195 -138 350 -287 491 -115 108 -198 156 -533 311 -338 155 -393 183 -493 250
-115 78 -136 96 -175 149 -23 31 -29 49 -29 91 0 125 60 217 182 279 98 49
169 60 299 47 186 -19 288 -68 424 -205 64 -65 103 -114 133 -171 185 -339
181 -335 282 -335 l57 0 6 68 c9 87 9 761 1 830 l-7 52 -156 0 c-145 0 -157
-1 -169 -20 -15 -25 -34 -25 -109 -3 -52 16 -118 18 -598 20 l-540 3 -50 -39z"/>
<path d="M10512 18468 c-17 -17 -15 -143 3 -178 21 -41 51 -61 150 -100 48
-19 101 -47 117 -62 l30 -27 -5 -1038 c-5 -993 -9 -1149 -35 -1175 -4 -4 -59
-12 -121 -17 -62 -6 -119 -15 -126 -21 -18 -15 -27 -116 -15 -180 18 -103 42
-160 70 -168 14 -4 537 -7 1162 -7 919 0 1139 2 1150 13 17 17 34 1123 18
1181 -15 56 -80 143 -122 164 -33 16 -40 16 -71 3 -42 -17 -70 -72 -117 -231
-60 -204 -185 -477 -265 -576 -73 -90 -139 -132 -266 -167 -154 -43 -241 -56
-329 -47 -41 4 -94 8 -117 9 -23 1 -48 7 -55 14 -10 10 -13 218 -13 1025 0
557 3 1047 8 1091 9 86 33 145 69 168 22 14 89 42 201 82 l47 18 0 63 c0 74
-11 110 -48 148 l-26 27 -641 0 c-485 0 -644 -3 -653 -12z"/>
<path d="M6922 14545 c-30 -14 -70 -33 -90 -42 -158 -74 -589 -356 -812 -532
-220 -173 -548 -492 -678 -660 -37 -47 -75 -95 -85 -106 -114 -122 -400 -517
-528 -730 -30 -49 -63 -104 -75 -122 -11 -17 -36 -62 -55 -99 -19 -38 -40 -74
-46 -82 -7 -7 -13 -20 -13 -28 0 -8 -5 -14 -11 -14 -6 0 -9 -9 -6 -20 3 -11 0
-18 -6 -17 -6 1 -13 -8 -15 -20 -2 -13 -7 -23 -12 -23 -16 0 -49 -76 -44 -101
4 -21 3 -22 -4 -4 -8 17 -11 15 -21 -20 -6 -22 -11 -48 -11 -57 0 -9 -4 -19
-9 -22 -5 -4 -7 4 -5 16 2 13 1 16 -2 8 -3 -8 -24 -53 -45 -98 -22 -46 -39
-86 -39 -88 0 -2 -11 -29 -26 -59 -85 -186 -187 -511 -273 -865 -163 -675
-216 -1614 -130 -2333 11 -94 25 -212 30 -262 16 -140 74 -446 113 -595 82
-312 102 -387 135 -485 16 -49 55 -157 86 -240 32 -82 70 -186 85 -230 15 -44
48 -123 73 -175 157 -331 258 -526 316 -610 21 -30 48 -73 59 -95 43 -85 244
-381 298 -439 12 -12 42 -53 67 -92 25 -38 63 -88 84 -111 21 -22 59 -67 85
-100 89 -112 399 -413 425 -413 7 0 13 -4 13 -10 0 -5 6 -10 13 -10 14 0 43
-24 145 -120 35 -33 69 -60 76 -60 7 0 21 -9 31 -20 10 -11 23 -20 30 -20 6 0
29 -17 52 -38 77 -70 74 -68 95 -42 13 17 18 32 13 50 -3 14 -9 62 -12 108 -4
57 -9 82 -18 82 -8 0 -16 -6 -18 -12 -4 -10 -8 -10 -15 1 -14 19 -5 39 21 47
12 4 27 12 34 20 15 15 18 124 3 124 -5 0 -10 14 -10 30 0 17 5 30 10 30 6 0
10 30 10 70 0 40 -4 70 -10 70 -5 0 -10 9 -10 20 0 11 5 20 10 20 6 0 10 9 10
20 0 11 -4 20 -10 20 -5 0 -10 18 -10 40 0 22 5 40 10 40 11 0 14 142 3 153
-8 9 -4 147 5 164 4 6 12 12 17 12 14 1 17 383 4 392 -6 3 -13 59 -16 123 -5
103 -4 116 11 116 14 0 16 24 16 240 0 207 -2 240 -15 240 -13 0 -15 47 -15
360 0 313 2 360 15 360 12 0 15 16 15 80 0 47 4 80 10 80 6 0 10 18 10 40 0
35 -3 40 -22 41 -13 0 -17 3 -10 6 18 7 16 73 -3 73 -13 0 -15 19 -13 118 1
84 3 97 5 45 2 -40 8 -73 13 -73 6 0 10 63 10 155 0 148 -1 155 -20 155 -22 0
-25 24 -10 115 l7 50 2 -42 c2 -79 21 -46 21 37 0 64 -3 80 -15 80 -13 0 -15
24 -15 160 0 100 -4 160 -10 160 -5 0 -10 18 -10 40 0 22 5 40 10 40 6 0 10
127 10 360 0 313 2 360 15 360 13 0 15 29 15 200 0 127 4 200 10 200 6 0 10
33 10 80 0 47 -4 80 -10 80 -6 0 -10 34 -10 81 0 61 3 79 13 73 10 -6 10 -4 0
7 -9 9 -14 68 -15 209 -1 149 -3 175 -8 110 l-6 -85 -2 122 c-1 67 2 123 7
125 21 7 11 318 -11 318 -5 0 -6 5 -2 12 10 15 34 -19 34 -49 0 -13 4 -23 9
-23 5 0 9 32 8 70 -1 50 -5 70 -14 70 -21 0 -15 19 15 46 18 17 23 27 15 31
-7 2 -13 22 -13 44 0 32 3 39 19 39 16 0 21 -8 24 -42 l4 -43 1 48 c2 39 5 47
21 47 11 0 27 -9 35 -21 8 -12 19 -18 25 -14 6 3 11 1 11 -4 0 -6 8 -11 19
-11 22 0 52 31 35 37 -6 2 -9 17 -6 33 4 28 -17 92 -28 85 -3 -2 -6 18 -7 45
-1 26 -3 54 -5 61 -2 10 13 15 57 19 78 7 2659 1 2704 -6 l34 -5 -63 -64 c-35
-36 -61 -67 -58 -71 10 -10 94 73 131 129 35 53 84 173 75 183 -3 2 -56 0
-119 -5 -70 -6 -635 -9 -1449 -8 l-1335 2 0 53 c1 40 6 57 23 75 l23 22 807
-1 c444 -1 1025 -2 1292 -3 267 0 523 3 570 9 l85 10 37 -30 c29 -24 47 -30
84 -30 41 0 56 7 123 55 75 54 118 105 106 125 -4 6 -22 17 -41 25 -32 13 -38
13 -60 -1 -32 -21 -138 -29 -193 -14 -27 7 -61 28 -91 56 -40 38 -53 44 -90
44 -38 0 -47 -5 -86 -47 l-43 -48 -67 2 c-83 2 -97 14 -88 72 10 61 28 70 179
78 l129 8 9 43 c7 34 17 49 50 73 23 17 52 35 65 40 32 12 27 40 -12 67 -30
20 -47 24 -118 23 -46 0 -96 -1 -112 -3 -36 -4 -46 19 -12 28 34 8 51 30 52
68 0 17 4 38 8 48 10 23 -14 29 -126 31 -62 1 -101 -3 -117 -12 -13 -7 -47
-14 -75 -15 -43 -1 -62 5 -121 41 -38 22 -81 44 -95 48 -14 4 -31 12 -37 17
-15 12 -16 86 -4 191 4 38 4 70 0 73 -13 7 -16 -7 -34 -136 -10 -69 -22 -131
-28 -137 -7 -10 -108 -13 -441 -13 l-431 0 0 762 c0 627 -2 764 -13 775 -29
29 -80 63 -93 63 -40 0 -236 -157 -425 -338 -67 -65 -167 -159 -223 -210 -104
-96 -141 -149 -141 -201 0 -26 5 -31 43 -44 147 -52 152 -54 161 -79 5 -14 5
-56 1 -94 -6 -63 -10 -72 -45 -104 -32 -30 -41 -48 -55 -105 -9 -39 -22 -95
-30 -125 -8 -31 -17 -110 -20 -175 -12 -229 -20 -285 -41 -285 -7 0 -21 -11
-30 -25 -9 -14 -24 -25 -33 -25 -14 0 -14 -2 -1 -10 12 -8 11 -12 -6 -32 -11
-13 -26 -37 -33 -55 -7 -17 -19 -34 -27 -37 -8 -3 -14 -15 -14 -26 0 -12 -5
-18 -10 -15 -6 3 -13 -2 -16 -12 -7 -23 -48 -114 -80 -176 -13 -27 -22 -53
-18 -58 3 -5 -2 -6 -12 -2 -13 5 -15 2 -9 -15 7 -23 -9 -31 -19 -9 -3 6 -3 2
0 -11 5 -20 2 -22 -24 -20 -23 2 -30 7 -29 23 0 11 -3 28 -7 38 -6 12 -4 17 8
17 12 0 16 10 17 38 0 20 2 60 4 87 1 28 -2 59 -8 70 -12 24 -10 119 3 123 13
5 13 82 0 82 -5 0 -10 -18 -10 -40 0 -22 -4 -40 -8 -40 -4 0 -8 71 -9 157 -1
100 -6 159 -13 161 -5 2 -10 21 -10 43 0 21 -4 39 -10 39 -5 0 -10 18 -10 40
0 22 5 40 10 40 6 0 11 60 11 158 1 98 5 142 9 117 l7 -40 2 43 c1 39 -1 42
-25 42 l-27 0 5 197 c3 139 8 198 16 201 18 6 15 82 -3 82 -8 0 -15 5 -15 11
0 6 7 9 15 5 13 -4 15 7 15 69 0 43 -4 75 -10 75 -5 0 -10 8 -10 18 0 9 -9 23
-20 30 -11 7 -20 17 -20 22 0 6 9 10 20 10 15 0 20 7 20 29 0 16 -7 36 -15 45
-8 8 -15 31 -15 50 0 29 4 36 20 36 24 0 16 27 -11 35 -42 14 2 164 58 198 6
4 10 14 7 22 -4 9 5 21 25 32 17 10 31 24 31 31 0 7 -5 10 -12 6 -7 -4 -8 -3
-4 5 4 6 12 9 17 5 6 -3 21 5 34 18 30 30 104 97 138 125 17 14 33 20 44 16
15 -6 16 -4 5 9 -11 14 -10 17 10 23 13 4 35 20 50 36 15 16 33 29 40 29 7 0
30 15 50 34 21 19 47 37 58 41 11 3 20 11 20 16 0 5 6 9 14 9 7 0 19 7 26 15
7 8 37 27 69 42 31 15 58 30 61 33 3 3 16 11 30 17 14 6 21 12 15 12 -5 1 -34
-10 -63 -24z m1683 -2352 c24 -17 35 -18 115 -10 104 10 197 -1 191 -24 -2 -7
-3 -31 -2 -51 2 -43 9 -40 -129 -57 -83 -11 -914 -14 -972 -4 -25 4 -28 9 -28
48 0 23 3 57 6 74 l7 31 161 1 c88 1 247 5 351 9 236 9 267 7 300 -17z m28
-312 c20 -1 27 -6 27 -20 0 -11 -4 -23 -10 -26 -12 -8 -13 -42 -1 -49 19 -12
41 7 47 41 7 37 28 53 47 34 11 -11 10 -16 -18 -85 -6 -14 -5 -17 3 -12 7 4
12 3 12 -3 0 -12 -40 -11 -56 1 -7 5 -28 2 -51 -7 -33 -13 -96 -15 -438 -13
l-400 3 -3 72 -3 72 408 -4 c224 -2 420 -4 436 -4z"/>
<path d="M11440 14320 c0 -5 -10 -10 -22 -13 -21 -3 -21 -4 -4 -12 11 -5 21
-3 26 5 6 9 9 9 15 1 4 -7 -3 -21 -16 -32 -12 -10 -17 -19 -10 -19 6 0 32 -20
58 -45 25 -25 48 -45 51 -45 2 0 20 -17 38 -37 19 -20 34 -34 34 -30 0 9 52
-35 103 -86 20 -21 41 -36 45 -33 5 3 16 -4 26 -16 15 -17 16 -22 5 -29 -11
-7 -12 -9 -1 -9 17 0 43 -26 35 -34 -4 -3 -15 -6 -25 -6 -15 0 -18 -5 -13 -20
5 -17 2 -20 -24 -20 -34 0 -41 -19 -16 -44 8 -8 15 -23 15 -33 1 -10 7 -29 15
-43 19 -33 19 -79 0 -86 -21 -8 -19 -60 1 -68 15 -6 16 -19 10 -106 -6 -87 -5
-100 9 -100 8 0 15 -9 15 -20 0 -10 6 -23 13 -27 8 -4 16 -15 20 -24 4 -13 1
-16 -15 -11 -20 5 -20 2 -13 -77 6 -68 5 -81 -8 -81 -10 0 -16 -17 -20 -60 -8
-68 2 -180 14 -180 5 0 9 -36 9 -80 0 -47 -4 -80 -10 -80 -6 0 -10 -60 -10
-160 0 -100 4 -160 10 -160 6 0 10 -47 10 -120 0 -73 -4 -120 -10 -120 -5 0
-10 -18 -10 -40 0 -22 5 -40 10 -40 6 0 10 -18 10 -40 0 -22 -4 -40 -10 -40
-6 0 -10 -47 -10 -120 0 -73 4 -120 10 -120 6 0 10 -60 10 -160 0 -100 -4
-160 -10 -160 -6 0 -10 -140 -10 -400 0 -260 4 -400 10 -400 6 0 10 -18 10
-40 0 -22 -4 -40 -9 -40 -6 0 -11 -219 -13 -557 -2 -437 -6 -557 -16 -561 -19
-6 -16 -322 4 -322 11 0 14 -24 16 -122 3 -218 -4 -433 -15 -440 -6 -4 -7 -27
-3 -65 5 -32 10 -138 12 -235 4 -154 2 -178 -11 -178 -11 0 -15 -11 -15 -40 0
-22 -4 -40 -9 -40 -5 0 -14 -14 -21 -30 -10 -23 -10 -33 -1 -44 39 -46 -78
-15 -155 41 -17 13 -34 23 -39 23 -4 0 -24 13 -44 29 -64 51 -283 131 -361
132 -32 0 -58 9 -90 30 -58 38 -180 96 -300 144 -146 58 -138 49 -132 158 8
161 -40 267 -122 267 -20 0 -36 5 -36 10 0 6 -7 10 -15 10 -8 0 -20 10 -26 23
-7 12 -17 25 -23 29 -6 4 -63 8 -127 8 -89 0 -129 -4 -173 -20 -40 -13 -64
-17 -80 -10 -13 5 -27 6 -30 3 -3 -3 -1 10 5 28 51 164 50 161 33 211 -18 56
-89 139 -140 163 -31 14 -43 15 -82 5 -45 -11 -129 -48 -164 -73 -15 -10 -23
-6 -51 25 -31 34 -38 37 -86 36 -34 -2 -51 -6 -51 -15 0 -7 6 -13 14 -13 15 0
33 -56 22 -67 -3 -4 -6 -1 -6 6 0 7 -7 20 -16 29 -15 15 -18 14 -37 -12 -12
-17 -22 -23 -26 -17 -4 6 -21 13 -39 15 -37 4 -59 20 -68 49 -4 11 -15 28 -25
36 -23 20 -28 63 -10 85 13 16 12 17 -15 11 -16 -4 -40 -19 -52 -33 -19 -20
-26 -23 -33 -11 -6 11 -9 8 -9 -10 0 -20 -4 -22 -25 -17 -29 7 -29 6 -14 -45
9 -30 9 -47 -4 -86 -19 -60 -16 -86 10 -115 11 -13 26 -33 32 -45 19 -38 84
-64 157 -64 35 0 64 -4 64 -9 0 -5 9 -17 20 -28 23 -21 50 -93 50 -132 0 -22
-6 -30 -27 -37 -40 -13 -550 -8 -592 6 -40 12 -46 8 -55 -49 -9 -58 -41 -121
-131 -262 l-84 -130 1 -96 c0 -54 -4 -110 -11 -125 -15 -39 -14 -118 4 -160 8
-19 55 -95 104 -169 108 -163 114 -175 135 -263 13 -53 33 -94 82 -167 66
-100 84 -120 84 -95 0 8 -7 18 -15 21 -9 3 -15 11 -13 18 3 20 -32 79 -43 73
-5 -4 -8 -3 -7 2 1 4 -12 37 -30 73 -17 36 -37 97 -43 135 -12 79 -12 270 1
432 8 101 11 114 54 195 25 49 40 90 35 94 -22 13 -123 16 -176 5 -60 -13
-121 -2 -108 19 3 5 1 10 -4 10 -17 0 -13 15 16 59 37 56 83 63 196 27 155
-49 299 -155 344 -253 29 -63 25 -83 -39 -194 -57 -99 -57 -121 -8 -264 37
-104 44 -138 53 -253 9 -116 8 -149 -8 -247 -14 -84 -16 -120 -8 -137 6 -13
40 -60 76 -104 95 -117 124 -167 153 -263 21 -68 24 -95 19 -142 -9 -77 13
-592 32 -754 23 -199 25 -233 16 -335 -10 -114 -1 -260 20 -332 9 -29 21 -74
28 -100 7 -30 30 -71 60 -108 31 -39 55 -81 65 -117 16 -55 16 -65 -2 -238 -7
-62 7 -102 37 -107 12 -2 26 -10 30 -18 18 -35 42 -90 70 -160 42 -109 129
-211 213 -250 46 -22 79 -47 116 -90 69 -79 131 -110 222 -110 70 0 216 25
231 39 5 5 -16 21 -45 36 -29 15 -72 42 -95 59 -23 17 -74 51 -113 75 -71 45
-150 133 -150 167 0 9 17 39 38 67 33 46 37 58 37 112 0 54 -7 73 -63 184 -34
68 -59 127 -56 132 8 13 -53 10 -121 -6 -33 -8 -70 -15 -81 -15 -48 0 -154
117 -154 170 0 9 -4 20 -8 26 -16 17 -51 138 -62 209 -5 39 -17 104 -26 145
-8 41 -16 107 -17 147 -1 39 -5 70 -8 68 -3 -2 -10 16 -17 40 -13 51 -36 62
-78 40 -36 -18 -39 -12 -47 75 -5 58 -3 70 20 109 35 60 39 147 24 536 -7 183
-9 311 -3 317 13 13 75 20 91 9 15 -9 12 -21 -29 -171 -12 -43 -14 -280 -2
-292 5 -5 196 -4 427 2 263 7 422 7 428 1 6 -6 -8 -44 -38 -104 -50 -102 -51
-127 -3 -143 83 -26 273 -198 241 -217 -37 -23 -86 -24 -160 -5 -43 11 -83 24
-90 30 -18 14 -36 -1 -29 -25 3 -12 1 -26 -3 -31 -5 -6 -12 -25 -15 -42 -6
-27 -2 -35 43 -77 28 -26 59 -47 69 -47 39 0 158 52 190 83 80 77 187 268 247
443 22 65 27 95 26 167 0 59 4 97 13 115 32 60 131 129 220 153 70 19 182 75
218 110 20 19 39 48 43 64 5 17 9 32 10 35 0 3 5 37 10 75 4 39 9 75 10 80 5
39 18 116 25 145 5 19 11 71 14 115 4 44 9 116 12 160 4 44 10 82 15 83 5 2 9
12 9 22 0 25 22 73 37 83 7 4 13 12 13 18 0 5 14 23 30 39 17 16 30 32 30 36
0 4 18 31 40 60 22 29 40 56 40 59 0 3 11 29 25 57 22 46 25 66 26 160 0 60 4
108 10 108 5 0 9 -19 10 -42 1 -55 7 -147 10 -174 2 -14 8 -20 17 -16 19 7 11
-265 -9 -297 -12 -18 -12 -23 1 -31 12 -7 12 -12 2 -22 -8 -8 -12 -46 -12
-115 0 -62 -4 -103 -10 -103 -6 0 -10 -47 -10 -120 0 -73 4 -120 10 -120 6 0
10 8 10 17 0 14 2 15 13 4 10 -11 10 -14 0 -18 -8 -3 -13 -22 -13 -44 0 -21
-4 -39 -10 -39 -6 0 -10 -47 -10 -121 0 -66 -3 -118 -7 -116 -5 3 -6 -15 -4
-39 2 -27 -1 -44 -8 -44 -6 0 -11 -18 -11 -40 0 -29 4 -40 15 -40 11 0 15 11
15 40 0 22 5 40 10 40 6 0 10 -18 10 -40 0 -22 -4 -40 -10 -40 -6 0 -10 -33
-10 -80 0 -47 4 -80 10 -80 6 0 10 -18 10 -39 0 -22 5 -41 12 -43 9 -3 13 -66
16 -241 3 -130 8 -237 13 -237 5 0 9 -18 9 -40 0 -22 -4 -40 -10 -40 -6 0 -10
-34 -10 -81 0 -61 3 -78 13 -73 9 6 8 3 -1 -8 -8 -11 -15 -57 -18 -125 -3 -59
-9 -109 -14 -111 -6 -2 -10 -21 -10 -43 0 -21 -4 -39 -10 -39 -6 0 -9 -67 -9
-170 -1 -163 0 -170 19 -170 13 0 20 -7 20 -20 0 -13 -7 -20 -19 -20 -10 0
-22 -7 -25 -15 -9 -24 4 -240 15 -243 5 -2 9 -21 9 -42 0 -22 5 -40 13 -43 10
-4 10 -7 0 -18 -9 -9 -13 -9 -13 -2 0 9 -8 9 -30 2 -23 -9 -27 -13 -17 -23 6
-7 21 -15 32 -20 14 -5 16 -9 7 -15 -14 -8 -53 -121 -46 -133 7 -11 37 -5 68
16 15 10 30 15 33 12 3 -3 -6 -11 -21 -17 -14 -7 -26 -18 -26 -25 0 -11 5 -11
28 -2 25 12 115 75 153 108 10 8 24 20 31 25 7 6 40 30 73 55 33 25 62 48 65
51 3 3 52 45 110 94 211 177 383 340 509 484 31 35 70 78 86 96 17 17 83 98
145 179 126 162 134 173 199 267 25 35 47 66 50 69 3 3 17 25 31 50 13 25 28
50 32 55 5 6 23 33 40 60 17 28 39 62 49 77 11 15 19 30 19 34 0 4 14 30 32
58 88 142 326 620 384 773 62 163 84 225 109 303 36 114 50 158 80 240 30 83
37 109 84 290 49 193 60 241 71 300 19 103 60 378 80 542 11 90 26 206 32 258
18 134 17 1045 0 1195 -48 408 -103 729 -161 940 -124 450 -212 731 -267 855
-9 19 -33 79 -54 135 -44 113 -117 283 -158 365 -86 170 -257 466 -332 575
-15 22 -45 67 -66 100 -38 60 -172 245 -183 255 -4 3 -35 41 -70 85 -59 75
-116 145 -151 185 -246 281 -493 518 -645 620 -27 19 -52 36 -55 40 -14 17
-131 109 -166 130 -21 13 -41 27 -44 30 -8 10 -132 93 -165 110 -16 9 -39 21
-50 27 -11 6 -38 19 -60 28 -22 10 -54 28 -72 41 -17 13 -38 24 -47 24 -8 0
-17 4 -20 9 -8 12 -46 21 -46 11z m-1289 -5561 c13 -28 28 -64 35 -89 12 -45
38 -70 77 -76 35 -6 87 -51 87 -74 0 -18 -67 -21 -140 -6 -41 8 -100 17 -132
20 -31 2 -66 9 -77 16 l-22 11 23 28 c13 16 36 33 53 38 29 9 41 33 60 126 6
29 23 32 36 6z m391 -668 c80 -34 168 -93 258 -171 36 -31 81 -67 100 -80 19
-13 58 -44 87 -69 53 -48 159 -126 199 -149 13 -7 29 -22 35 -33 19 -37 -6
-72 -94 -129 -45 -30 -144 -101 -220 -159 -76 -59 -184 -141 -240 -183 -109
-83 -203 -138 -234 -138 -11 0 -38 13 -59 29 -322 243 -377 287 -410 324 -20
23 -46 40 -75 47 -105 28 -189 93 -189 144 0 42 42 97 112 148 82 58 240 178
308 233 74 61 253 183 293 200 44 19 53 18 129 -14z m-594 -1022 c49 -10 62
-19 146 -102 128 -128 146 -181 65 -200 -48 -11 -562 -21 -631 -13 -94 12 -98
18 -105 178 l-6 137 124 3 c68 2 175 4 238 6 63 1 139 -2 169 -9z m143 -558
c173 -60 379 -172 379 -205 0 -16 -78 -47 -135 -54 -45 -5 -101 17 -163 63
-19 13 -58 31 -88 40 -53 15 -104 55 -140 110 -19 30 -13 42 29 54 47 14 59
13 118 -8z"/>
<path d="M10392 7935 c-29 -7 -69 -21 -89 -30 -47 -23 -123 -93 -123 -114 0
-9 14 -29 32 -45 30 -26 42 -29 143 -36 137 -10 195 -31 195 -72 0 -10 3 -9
11 2 8 12 10 12 7 1 -9 -34 -34 -35 -100 -3 -77 37 -162 52 -238 42 -112 -14
-130 -33 -130 -133 0 -92 55 -202 143 -284 83 -77 126 -98 202 -98 69 0 118
22 215 98 77 60 103 103 105 171 0 28 7 62 14 75 11 20 11 31 0 63 -11 35 -11
40 9 59 24 21 25 30 15 79 -9 47 -129 162 -207 199 -73 35 -133 43 -204 26z"/>
<path d="M7619 13974 c-10 -3 -19 -14 -22 -26 -6 -20 -4 -20 141 -13 165 8
482 -8 582 -29 36 -8 97 -29 135 -46 57 -26 66 -34 50 -40 -18 -6 -17 -8 12
-23 47 -25 62 -22 58 11 -2 15 -2 21 1 15 6 -14 34 -18 34 -5 0 13 -102 68
-165 90 -109 38 -318 60 -615 67 -107 2 -202 2 -211 -1z"/>
<path d="M8370 13653 c-14 -9 -43 -32 -64 -50 -22 -18 -44 -33 -49 -33 -5 0
-22 -10 -39 -21 -31 -23 -33 -39 -13 -136 5 -24 1 -45 -17 -81 l-25 -49 -63
23 c-77 29 -150 32 -174 5 -19 -21 -46 -150 -46 -220 0 -59 27 -100 105 -161
121 -95 122 -95 136 -165 l13 -65 35 0 c20 0 74 7 120 15 85 15 161 11 161 -8
0 -5 7 -4 15 3 11 9 37 11 98 6 45 -4 100 -8 122 -9 l39 -2 1 55 c2 63 15 90
58 115 17 10 58 42 92 71 70 59 133 94 155 86 8 -3 30 -18 49 -35 80 -69 291
-145 291 -104 0 20 -8 25 -74 42 -98 26 -238 95 -279 137 -20 22 -35 43 -32
48 3 4 -1 13 -9 19 -23 19 -28 72 -9 93 21 23 3 49 -20 29 -12 -9 -16 -8 -20
8 -3 13 -22 24 -60 35 -68 20 -98 20 -159 1 -43 -12 -49 -12 -68 3 -16 13 -22
33 -27 92 -3 41 -11 86 -18 100 -20 38 -160 170 -182 170 -10 0 -30 -8 -43
-17z"/>
<path d="M9585 12010 c-104 -3 -191 -7 -192 -8 -4 -4 5 -77 11 -93 6 -12 38
-18 159 -28 162 -13 189 -11 310 30 74 26 76 27 79 62 1 15 6 27 10 27 4 0 8
5 8 10 0 10 -50 10 -385 0z"/>
<path d="M6582 11113 l-93 -4 5 -77 c7 -92 19 -157 57 -302 5 -19 10 -48 12
-65 2 -16 6 -37 9 -45 4 -8 14 -40 23 -70 9 -30 30 -83 46 -118 16 -35 29 -67
29 -71 0 -16 40 -98 60 -124 12 -15 30 -27 40 -27 9 0 38 24 64 54 35 42 46
62 46 89 0 50 19 95 42 103 20 6 20 11 15 221 -5 215 -5 215 -31 242 -14 15
-26 32 -26 39 0 9 96 12 398 13 218 1 680 2 1026 3 l628 2 59 63 c63 69 70 78
40 59 -14 -9 -27 -8 -60 5 -38 16 -139 17 -1169 15 -620 -1 -1169 -4 -1220 -5z"/>
<path d="M8082 10843 c-23 -3 -36 -11 -42 -29 -10 -25 -40 -34 -40 -11 0 34
-70 40 -396 33 -175 -3 -320 -9 -323 -12 -3 -3 3 -12 14 -21 26 -19 124 -63
142 -63 7 0 55 -25 105 -56 133 -81 191 -86 278 -24 46 32 151 90 165 90 7 0
18 7 25 15 15 19 44 19 59 2 6 -8 30 -20 53 -27 24 -8 50 -20 59 -27 8 -7 20
-13 25 -13 15 0 150 127 143 134 -8 8 -223 16 -267 9z"/>
<path d="M8424 10831 c3 -5 23 -12 44 -16 69 -11 114 -45 134 -99 27 -76 34
-80 101 -61 l57 16 16 57 c9 31 20 61 25 66 5 6 9 17 9 26 0 14 -25 16 -196
18 -120 2 -193 -1 -190 -7z"/>
<path d="M8830 10576 c-69 -27 -155 -68 -161 -78 -14 -23 6 -45 80 -90 50 -30
91 -48 115 -50 35 -2 43 2 83 47 78 88 96 154 46 169 -50 13 -131 15 -163 2z"/>
<path d="M7220 10535 c-9 -11 -11 -45 -6 -132 10 -173 16 -213 32 -213 8 0 14
9 14 20 0 22 27 40 60 40 16 0 21 -5 18 -21 -2 -12 -11 -26 -20 -30 -10 -5
-25 -13 -34 -17 -12 -5 -17 -22 -18 -57 -1 -43 2 -50 19 -50 29 0 92 90 116
165 26 82 35 206 17 240 -28 54 -167 92 -198 55z"/>
<path d="M7658 10478 c-22 -8 -28 -16 -28 -41 -1 -18 -2 -167 -4 -332 -2 -165
-7 -339 -11 -387 -9 -108 -10 -108 -150 -38 -55 27 -136 64 -180 82 -65 26
-93 45 -149 100 -81 80 -114 91 -64 22 73 -103 104 -122 384 -243 152 -65 184
-73 184 -42 0 35 78 44 108 13 9 -11 34 -38 56 -61 21 -23 62 -54 90 -68 28
-14 87 -50 131 -79 l81 -52 71 5 c112 8 156 -30 66 -58 -27 -8 -48 -20 -48
-25 0 -14 40 -59 98 -111 l46 -43 27 25 c15 14 32 25 38 25 32 1 36 15 26 97
-8 71 -6 91 11 150 31 104 41 171 29 193 -6 11 -27 24 -48 29 -82 22 -242 45
-327 47 -54 1 -90 6 -90 12 0 6 32 33 70 60 39 28 80 58 93 67 32 23 109 131
122 171 10 30 8 37 -22 78 -45 61 -76 73 -131 52 -94 -36 -131 -76 -151 -166
-3 -14 -15 -35 -26 -48 -18 -19 -31 -22 -108 -22 -117 0 -149 16 -179 90 -40
98 -29 303 26 478 11 35 6 38 -41 20z m580 -914 c23 -4 32 -10 32 -24 0 -24
17 -26 41 -4 17 15 19 15 31 -11 11 -24 10 -29 -7 -42 -16 -12 -37 -13 -105
-7 -47 4 -114 7 -150 6 -100 -3 -129 4 -136 34 -8 33 6 46 58 54 44 6 176 3
236 -6z"/>
<path d="M8533 10249 c-29 -11 -64 -34 -78 -51 l-26 -31 22 -23 c27 -29 68
-31 152 -9 67 17 120 19 147 5 11 -6 29 -37 41 -70 15 -42 28 -61 43 -65 11
-3 37 -10 56 -15 19 -5 53 -12 74 -15 47 -8 106 -61 106 -97 0 -13 8 -31 18
-39 9 -9 22 -24 28 -34 10 -18 15 -18 150 -1 131 16 294 23 339 15 16 -3 21 2
23 24 2 16 -1 27 -9 27 -7 0 -21 7 -31 17 -13 12 -35 16 -81 14 -61 -1 -62 -1
-116 49 -30 27 -61 50 -69 50 -7 0 -41 -7 -75 -16 l-62 -17 -56 27 c-31 14
-72 39 -92 54 -19 15 -53 38 -76 52 -23 14 -78 49 -124 78 -145 94 -206 109
-304 71z"/>
<path d="M8655 9124 c-16 -8 -39 -23 -50 -33 -31 -29 -62 -42 -118 -51 -34 -5
-57 -4 -65 2 -22 19 -21 4 2 -22 45 -50 75 -72 111 -80 33 -8 40 -5 75 26 33
30 41 33 61 24 13 -6 37 -29 52 -51 16 -21 32 -39 37 -39 5 0 29 17 53 38 24
20 52 42 62 48 24 13 14 41 -20 54 -14 5 -30 21 -37 35 -6 14 -16 25 -22 25
-6 0 -28 9 -49 20 -44 24 -53 24 -92 4z"/>
<path d="M10221 5100 c-34 -41 -39 -50 -23 -50 14 0 18 -7 17 -32 -1 -17 -7
-34 -13 -36 -7 -2 -11 -7 -9 -10 2 -4 -5 -15 -15 -25 -18 -17 -18 -16 -13 12
3 17 9 41 15 55 13 35 -6 34 -33 -1 -12 -16 -39 -47 -59 -69 -21 -23 -38 -43
-38 -46 0 -10 38 -48 48 -48 6 0 13 -8 16 -18 3 -9 14 -22 25 -29 17 -11 21
-7 41 40 46 108 64 143 88 176 18 25 22 35 12 41 -8 5 -9 13 -3 25 10 18 6 65
-7 65 -4 0 -26 -22 -49 -50z"/>
<path d="M5892 4021 c-18 -22 -32 -44 -32 -49 0 -6 -15 -32 -32 -59 -18 -26
-38 -60 -44 -74 -7 -14 -29 -51 -50 -83 -71 -107 -90 -141 -109 -192 -24 -68
-16 -99 30 -114 31 -10 39 -9 67 11 46 31 69 57 97 109 13 25 46 79 72 120
109 172 159 271 162 317 2 41 -13 50 -89 52 -36 1 -44 -4 -72 -38z"/>
<path d="M12492 3955 c-13 -17 -23 -49 -27 -90 -7 -58 -4 -71 20 -120 14 -30
30 -55 34 -55 13 0 107 -122 141 -182 17 -32 44 -71 59 -87 24 -26 32 -29 77
-24 27 2 59 6 70 9 24 4 64 64 64 93 0 10 7 24 15 31 23 19 18 28 -11 22 -20
-4 -35 4 -67 35 -23 23 -55 45 -71 50 -56 17 -71 52 -73 166 -1 56 -2 106 -3
111 0 4 -16 5 -35 2 -41 -8 -120 16 -151 45 l-22 20 -20 -26z"/>
<path d="M6079 3713 c-15 -18 -106 -155 -153 -230 -14 -24 -26 -51 -26 -62 0
-11 -4 -22 -9 -25 -13 -8 -21 -62 -14 -96 4 -25 10 -30 33 -30 41 0 95 26 120
57 11 15 46 66 76 113 31 47 64 94 75 105 18 18 22 19 45 5 16 -9 32 -32 41
-59 21 -64 14 -84 -83 -246 -13 -22 -24 -48 -24 -59 0 -25 58 -96 79 -96 30 0
79 57 121 141 79 158 100 241 75 293 -14 29 -89 87 -132 103 -10 4 -36 21 -58
39 -80 63 -139 80 -166 47z"/>
<path d="M12250 3637 c-19 -7 -62 -31 -95 -54 -116 -79 -139 -121 -110 -203
22 -63 52 -98 106 -125 74 -38 85 -79 36 -132 -20 -22 -20 -23 -2 -43 12 -14
27 -19 44 -16 138 22 294 116 332 200 20 45 25 101 9 111 -5 3 -10 14 -10 24
0 24 -51 71 -78 71 -12 0 -30 4 -40 9 -9 6 -30 12 -45 16 -39 8 -43 28 -13 58
37 37 33 60 -12 80 -45 20 -74 21 -122 4z"/>
<path d="M6973 3381 c-189 -88 -271 -349 -168 -531 31 -55 131 -147 190 -175
47 -22 67 -25 160 -25 150 0 171 13 213 136 17 49 19 71 13 118 -9 65 -18 77
-61 82 -17 2 -46 10 -63 18 -49 22 -115 30 -132 16 -16 -13 -21 -60 -6 -60 5
0 8 -18 7 -40 0 -28 5 -43 18 -53 24 -18 14 -65 -16 -76 -33 -12 -76 9 -135
66 -87 84 -102 149 -59 245 62 139 213 190 286 98 17 -21 30 -45 30 -53 0 -8
7 -17 15 -21 8 -3 15 -12 15 -20 0 -19 40 -32 50 -16 5 8 9 5 13 -9 3 -15 13
-21 31 -21 21 0 26 5 26 25 0 14 4 25 9 25 14 0 -1 92 -21 127 -11 18 -41 45
-66 60 -155 93 -270 121 -349 84z"/>
<path d="M11875 3382 c-46 -8 -125 -35 -125 -44 0 -5 9 -27 21 -50 31 -60 105
-248 114 -287 9 -40 -13 -60 -65 -61 -65 0 -81 17 -117 119 -67 190 -91 216
-166 183 -65 -29 -71 -41 -47 -97 11 -26 27 -78 34 -116 18 -82 52 -143 110
-197 79 -72 89 -77 138 -57 24 9 72 38 108 64 36 27 94 63 129 82 35 18 65 39
68 47 3 7 -10 48 -30 90 -19 42 -57 127 -83 187 -58 133 -63 142 -89 137z"/>
<path d="M11005 3225 c-5 -2 -92 -29 -193 -59 -198 -61 -238 -77 -264 -110
-43 -52 -14 -86 77 -91 120 -8 110 6 179 -267 25 -98 50 -187 56 -198 10 -18
19 -21 63 -19 84 4 90 7 84 43 -34 188 -52 270 -82 359 -19 57 -35 111 -35
119 0 8 27 34 61 58 85 59 121 124 87 158 -12 12 -16 13 -33 7z"/>
<path d="M11315 3153 c-79 -17 -178 -84 -189 -128 -4 -15 9 -67 34 -143 22
-66 48 -150 58 -188 22 -87 40 -99 114 -76 27 9 54 24 58 33 12 21 -4 117 -30
189 -22 60 -26 105 -9 115 20 13 59 118 59 161 l0 44 -37 -1 c-21 -1 -47 -3
-58 -6z"/>
<path d="M7630 2981 c-91 -44 -126 -90 -154 -198 -29 -111 -17 -161 59 -238
90 -93 213 -130 283 -87 36 21 106 84 116 103 4 8 13 25 21 39 16 28 18 66 8
161 -6 60 -9 67 -57 114 -56 55 -151 109 -206 118 -23 3 -48 -1 -70 -12z m124
-141 c43 -16 63 -75 58 -167 -3 -48 -53 -93 -103 -93 -79 0 -118 88 -84 189
24 73 65 96 129 71z"/>
<path d="M8452 2973 c-6 -10 -13 -32 -16 -49 -7 -34 -42 -70 -93 -100 -32 -18
-33 -18 -85 4 -30 12 -61 22 -70 22 -9 0 -41 -28 -71 -62 -61 -68 -96 -154
-91 -222 4 -51 69 -182 100 -203 23 -14 259 -62 311 -63 28 0 72 56 84 107 17
74 41 299 36 342 -3 28 2 62 14 97 29 83 27 91 -37 119 -67 30 -71 30 -82 8z
m-117 -303 c79 -30 55 -200 -30 -213 -79 -12 -127 56 -104 148 13 50 17 55 63
66 44 10 42 10 71 -1z"/>
<path d="M8933 2943 c-18 -7 -17 -160 2 -243 8 -36 28 -135 45 -220 17 -85 33
-165 36 -177 8 -40 46 -74 90 -80 33 -4 45 -1 70 20 17 14 38 43 47 64 12 30
74 224 104 327 10 36 30 -6 58 -124 53 -224 66 -250 137 -268 58 -15 93 0 112
49 9 22 30 108 46 192 17 84 39 177 49 207 15 43 19 76 16 148 -2 50 -7 97
-11 103 -9 15 -78 6 -108 -14 -39 -26 -53 -74 -59 -195 -8 -161 -16 -167 -70
-58 -20 40 -43 103 -51 140 -16 79 -32 100 -89 115 -80 23 -116 -9 -143 -125
-8 -38 -23 -102 -32 -143 -9 -41 -23 -76 -30 -79 -17 -5 -48 68 -62 148 -20
117 -38 167 -71 194 -29 24 -58 31 -86 19z"/>
<path d="M9975 2795 c-58 -15 -120 -76 -162 -159 -62 -120 -11 -279 107 -341
41 -21 137 -37 184 -30 108 17 146 77 153 244 6 130 -4 174 -58 234 -58 66
-119 80 -224 52z"/>
<path d="M6346 1558 c-10 -17 -16 -68 -21 -188 -13 -320 -13 -327 12 -352 19
-18 27 -20 50 -12 27 9 28 13 39 113 7 56 16 107 22 113 16 16 54 5 73 -22 18
-24 41 -118 41 -168 1 -31 27 -43 70 -32 52 15 65 47 49 118 -8 31 -16 86 -20
122 -3 36 -14 78 -23 92 -20 31 -71 63 -114 72 -34 7 -78 50 -113 107 -33 57
-47 65 -65 37z"/>
<path d="M4322 1554 c-18 -9 -34 -26 -37 -38 -2 -11 -6 -134 -7 -273 l-3 -252
30 -17 c24 -15 51 -18 143 -17 119 2 176 14 202 43 11 13 26 16 57 13 37 -5
43 -9 57 -44 9 -21 18 -39 20 -39 13 0 36 69 36 109 1 50 14 119 31 164 13 30
53 38 63 11 3 -9 6 -63 6 -120 0 -101 1 -105 24 -115 15 -7 43 -9 70 -5 l46 7
0 166 c0 159 -1 168 -25 208 -13 24 -32 46 -42 51 -28 12 -238 12 -255 0 -33
-25 -42 -62 -47 -210 l-6 -150 -70 -3 c-104 -4 -122 2 -128 40 -3 18 -2 113 1
212 l7 180 52 5 c56 6 67 13 77 46 9 29 -1 32 -146 39 -104 5 -128 3 -156 -11z"/>
<path d="M5575 1553 c-8 -8 -15 -23 -15 -33 0 -30 -41 -154 -56 -170 -13 -13
-19 -10 -50 23 -44 46 -73 54 -127 33 -24 -9 -60 -16 -80 -16 -46 0 -72 -13
-88 -42 -15 -28 -30 -192 -34 -382 -2 -86 -8 -153 -14 -159 -18 -18 -114 -25
-336 -27 l-210 -1 -29 -35 c-35 -42 -30 -80 12 -91 26 -7 449 -9 1472 -5 965
3 6668 5 7540 2 851 -2 886 -2 907 16 37 32 21 68 -40 94 -43 19 -64 22 -124
17 -40 -3 -75 -2 -78 3 -3 5 9 23 26 41 31 31 31 34 26 102 -4 68 -6 72 -51
115 -41 39 -47 49 -44 80 2 21 10 38 21 43 9 5 25 13 35 18 14 7 17 25 20 114
3 101 2 107 -19 118 -27 14 -145 7 -204 -13 -33 -11 -44 -22 -63 -61 -23 -45
-24 -58 -26 -290 l-2 -242 -29 -15 c-43 -22 -863 -23 -889 -1 -17 14 -17 29 0
137 4 26 -3 38 -40 78 -56 59 -68 112 -40 182 50 124 139 82 151 -71 7 -92 17
-110 76 -135 102 -44 297 -10 313 55 3 13 3 28 0 33 -3 6 -13 70 -21 142 -10
95 -19 138 -31 151 -19 21 -46 24 -75 9 -17 -9 -19 -22 -19 -104 0 -77 -3 -96
-18 -109 -42 -38 -106 1 -117 72 -14 82 -18 93 -46 122 -15 16 -33 29 -39 29
-18 0 -70 -30 -70 -40 0 -18 -39 -10 -54 11 -19 28 -71 59 -99 59 -12 0 -42
-9 -66 -20 -24 -11 -56 -20 -72 -20 -34 0 -38 -7 -83 -136 -29 -83 -32 -101
-24 -140 5 -24 8 -100 6 -169 -4 -150 -9 -158 -98 -148 -30 4 -62 6 -70 5 -8
-1 -1580 -3 -3493 -5 -2415 -2 -3488 1 -3510 8 l-32 10 3 77 c3 80 -8 116 -59
180 -36 45 -28 106 23 181 64 92 67 94 106 49 31 -35 33 -40 27 -87 -13 -96
-10 -185 5 -196 20 -12 82 -2 96 17 6 8 14 38 17 66 4 29 11 54 17 56 7 3 4 9
-5 16 -17 12 -36 127 -39 234 -1 48 2 57 28 78 19 17 34 23 45 18 9 -4 36 -8
61 -8 39 -1 46 2 58 27 7 15 11 31 8 36 -3 4 -40 1 -82 -8 l-76 -16 -49 27
c-44 23 -51 24 -64 11z"/>
<path d="M8617 1535 c-39 -34 -87 -130 -87 -172 0 -30 11 -45 85 -117 71 -69
85 -88 85 -114 0 -37 -25 -57 -83 -67 -53 -10 -71 -50 -41 -90 13 -17 27 -20
92 -20 83 0 91 3 164 70 47 44 91 51 117 18 9 -11 38 -36 65 -56 41 -32 55
-37 100 -37 78 0 106 39 71 100 -35 61 -7 111 57 104 79 -9 118 -43 153 -131
20 -50 50 -65 135 -66 61 0 100 19 100 49 0 15 -57 64 -75 64 -7 0 -27 16 -44
35 -59 68 -29 160 60 186 48 15 52 42 12 89 -24 29 -31 32 -71 27 -48 -5 -77
-29 -106 -85 -16 -31 -51 -62 -71 -62 -5 0 -35 23 -65 50 -64 59 -127 90 -180
90 -42 0 -74 -25 -124 -99 -31 -47 -58 -61 -114 -61 -64 0 -125 77 -115 144 2
17 17 50 34 73 16 23 29 47 29 53 0 52 -132 70 -183 25z"/>
<path d="M10901 1534 c-11 -14 -21 -28 -23 -32 -7 -17 -107 -91 -158 -118 -30
-16 -65 -38 -78 -49 -29 -25 -82 -110 -82 -132 0 -31 -26 7 -44 66 -23 71 -59
123 -96 140 -25 11 -43 11 -94 1 -35 -6 -77 -20 -93 -30 -36 -22 -65 -79 -71
-142 -5 -51 13 -164 34 -216 12 -30 17 -33 51 -30 l38 3 0 85 c0 106 20 150
66 150 42 0 64 -51 56 -136 -8 -79 -1 -104 28 -104 33 0 60 28 79 83 10 26 24
47 32 47 7 0 26 -19 40 -42 66 -105 100 -122 232 -116 103 4 133 15 151 55 20
43 8 467 -14 526 -10 24 -30 21 -54 -9z"/>
<path d="M11495 1459 c-14 -26 -16 -64 -13 -246 l3 -215 25 -20 c23 -19 33
-20 145 -13 156 10 187 10 267 0 72 -8 175 6 214 31 35 21 47 92 34 202 -17
151 -40 180 -156 193 -116 13 -118 10 -114 -121 l2 -65 -62 -79 -62 -78 -46 7
c-116 17 -136 55 -136 265 -1 80 -5 151 -9 158 -5 6 -24 12 -42 12 -28 0 -37
-6 -50 -31z"/>
<path d="M9835 1411 c-11 -5 -49 -39 -83 -76 -55 -59 -62 -70 -58 -98 3 -18 8
-68 12 -112 10 -125 33 -150 153 -165 79 -10 147 8 190 51 33 32 71 137 71
193 0 54 -64 134 -160 199 -26 18 -91 22 -125 8z m125 -173 c53 -87 -11 -180
-93 -136 -32 17 -46 39 -47 73 0 53 41 93 98 94 15 1 29 -10 42 -31z"/>
<path d="M12322 1405 c-49 -21 -74 -86 -80 -208 -6 -117 10 -202 39 -218 12
-6 37 -8 60 -4 39 7 39 7 33 43 -23 130 -10 202 36 217 43 14 62 -26 69 -144
6 -84 6 -85 36 -93 39 -10 61 11 70 65 4 23 13 56 20 72 9 24 9 43 -1 95 -26
127 -57 166 -137 175 -23 3 -58 7 -77 10 -19 2 -50 -2 -68 -10z"/>
<path d="M13638 1404 c-43 -19 -48 -32 -37 -110 10 -65 4 -111 -17 -134 -29
-33 -54 -107 -48 -140 10 -50 42 -64 122 -54 37 4 91 8 120 9 83 3 86 10 90
182 5 208 -16 246 -140 257 -35 4 -65 0 -90 -10z"/>
<path d="M14495 1389 c-20 -13 -44 -18 -69 -17 -35 3 -42 -1 -64 -32 -22 -34
-23 -41 -20 -178 3 -139 4 -144 28 -162 25 -19 95 -35 206 -46 49 -5 63 -3 77
10 25 25 22 32 -27 68 -25 18 -47 43 -51 56 -5 20 -10 22 -38 17 -24 -5 -37
-2 -46 9 -11 13 -7 16 26 25 21 5 54 9 73 8 44 -3 105 52 94 85 -3 12 -7 46
-8 76 -1 46 -6 58 -29 78 -36 30 -108 32 -152 3z"/>
<path d="M6034 1378 c-16 -13 -30 -26 -32 -30 -2 -4 -17 -23 -33 -44 -16 -20
-29 -40 -29 -45 0 -4 29 -36 65 -71 42 -41 65 -73 65 -87 0 -28 -18 -62 -42
-79 -27 -20 -22 -29 28 -48 39 -15 52 -15 97 -5 60 14 107 53 107 90 0 28 -21
91 -30 91 -4 0 -21 21 -40 46 -27 37 -33 58 -38 112 -2 37 -9 73 -15 80 -15
19 -72 14 -103 -10z"/>
<path d="M7050 1378 c-19 -20 -21 -32 -17 -90 3 -50 0 -76 -14 -107 -10 -23
-22 -41 -27 -41 -11 0 -32 -45 -32 -71 0 -33 28 -78 60 -94 34 -18 122 -18
195 -2 56 13 79 43 69 89 -8 40 39 134 72 142 39 10 60 -1 79 -40 14 -30 15
-42 4 -88 -21 -96 1 -121 104 -118 45 2 69 16 91 53 24 40 20 69 -19 145 -29
56 -35 79 -35 131 0 79 -19 103 -82 103 -38 0 -47 -5 -95 -57 -52 -55 -53 -56
-80 -42 -16 8 -30 17 -33 21 -13 17 -167 88 -192 88 -15 0 -36 -10 -48 -22z"/>
<path d="M8016 1381 c-19 -21 -25 -84 -12 -131 6 -20 0 -35 -30 -73 -30 -38
-38 -59 -42 -100 -7 -83 11 -97 136 -109 101 -10 103 -10 136 16 54 41 71 147
42 259 -29 112 -62 144 -160 154 -43 4 -54 2 -70 -16z"/>
<path d="M5793 1342 c-7 -4 -23 -37 -37 -72 -21 -59 -23 -71 -13 -123 7 -41 8
-71 0 -98 -8 -32 -7 -41 5 -51 18 -15 125 -15 165 1 l27 11 -20 22 c-12 13
-27 30 -35 39 -22 24 -18 58 15 124 29 59 29 60 10 77 -11 9 -20 20 -20 26 0
29 -70 61 -97 44z"/>
<path d="M10807 449 c-34 -26 -48 -53 -88 -166 -18 -48 -49 -114 -70 -147 -22
-32 -39 -62 -39 -66 0 -4 17 -10 38 -14 50 -8 433 -6 455 2 15 6 12 13 -22 55
-22 26 -51 71 -64 100 -41 88 -57 125 -57 133 0 16 -64 103 -80 107 -8 3 -22
8 -31 11 -9 4 -27 -2 -42 -15z"/>
<path d="M7788 428 c-16 -17 -49 -75 -74 -127 -24 -53 -60 -127 -79 -165 -28
-53 -33 -71 -23 -78 18 -11 455 -10 462 1 3 5 -7 27 -23 49 -36 48 -74 123
-91 177 -19 60 -58 141 -76 159 -25 26 -63 19 -96 -16z"/>
<path d="M9277 421 c-13 -16 -41 -74 -62 -128 -39 -101 -66 -153 -97 -188 -25
-27 -18 -39 28 -47 49 -9 367 -10 388 -2 20 8 21 38 1 54 -8 7 -15 21 -15 31
0 11 -4 19 -9 19 -5 0 -38 61 -75 135 -80 163 -109 185 -159 126z"/>
<path d="M6377 406 c-18 -19 -43 -61 -56 -93 -38 -92 -84 -186 -105 -215 -11
-15 -16 -31 -12 -35 11 -11 407 -16 417 -6 8 8 5 15 -41 95 -14 24 -38 72 -54
108 -60 139 -68 155 -84 168 -23 18 -30 16 -65 -22z"/>
<path d="M12252 402 c-12 -10 -49 -71 -82 -136 -33 -65 -73 -135 -90 -156 -23
-29 -27 -41 -18 -47 16 -9 378 -18 413 -9 l25 6 -25 43 c-14 23 -50 93 -81
155 -50 99 -94 162 -113 162 -3 0 -16 -8 -29 -18z"/>
</g>
</svg>
